<?xml version="1.0" encoding="utf-8"?><!-- Uploaded to: SVG Repo, www.svgrepo.com, Generator: SVG Repo Mixer Tools -->
<svg xmlns="http://www.w3.org/2000/svg" fill="none" viewBox="0 0 63 30" style="width: 63px; height: 30px;"><path fill="#000" d="M.2.28h7.96V3.4H3.64v9.12h3.84v3.12H3.64v10.24h4.52V29H.2zM15.255 29h-3.72L8.375 7.16h3.36l1.68 16h.08l1.72-16h3.2zm12.6-3.88c0 2.68-1.6 4.2-4.16 4.2s-4.36-1.52-4.36-4.2V11.04c0-2.68 1.8-4.2 4.36-4.2s4.16 1.52 4.16 4.2v7.2h-5.24v6.4c0 1.16.36 1.64 1.08 1.64s1.08-.48 1.08-1.64v-3.36h3.08zm-5.24-13.6v3.88h2.16v-3.88c0-1.16-.36-1.64-1.08-1.64s-1.08.48-1.08 1.64m13.753-1.08c-.52-.04-.72-.04-1.12-.04-1.32 0-2.2.56-2.2 1.72V29h-3.28V7.16h3.28V8.6c.4-.88 1.44-1.6 2.44-1.6.36 0 .64.04.88.12zM40.14.28h4.36L47.94 29h-3.36l-.72-7.12h-3.2L39.9 29h-3.2zm1.72 10-.92 8.6h2.6l-.88-8.6-.36-3.92h-.08zm14 .16c-.52-.04-.72-.04-1.12-.04-1.32 0-2.2.56-2.2 1.72V29h-3.28V7.16h3.28V8.6c.4-.88 1.44-1.6 2.44-1.6.36 0 .64.04.88.12zm1.803 15.24V10.12h-1.32V7.16h1.32V2.08h3.28v5.08h1.96v2.96h-1.96v14.92c0 .8.36 1 1.08 1h.88V29h-1.96c-1.92 0-3.28-.88-3.28-3.32"></path></svg>